<svg width="39" height="31" viewBox="0 0 39 31" fill="none" xmlns="http://www.w3.org/2000/svg">
<path d="M6.45513 4.63787C5.4495 4.63787 4.63574 5.45163 4.63574 6.45064C4.63574 7.45626 5.4495 8.27003 6.44851 8.27003C7.45413 8.27003 8.2679 7.45626 8.2679 6.45726C8.2679 5.45163 7.45413 4.63787 6.45513 4.63787Z" fill="#CBD4D9"/>
<path d="M37.3185 0.794003H1.16899C0.752184 0.794003 0.421387 1.13142 0.421387 1.5416V12.1139H38.0793V1.5416C38.0793 1.1248 37.7419 0.794003 37.3317 0.794003H37.3185ZM6.43528 9.83139C4.56958 9.83139 3.06115 8.31633 3.06115 6.45064C3.06115 4.58494 4.5762 3.0765 6.4419 3.0765C8.30759 3.0765 9.81603 4.59156 9.81603 6.45725C9.81603 8.32295 8.30098 9.83139 6.43528 9.83139ZM10.5901 9.59983V3.30145H12.0721V8.12447H14.2289L13.4416 9.59983H10.5901ZM19.3099 9.59983L17.6096 6.42417L15.9093 9.59321H14.2355L17.6096 3.30145L20.9837 9.59321H19.3099V9.59983Z" fill="#CBD4D9"/>
<path d="M27.1957 20.1192H11.291V30.8436H27.1957V20.1192Z" fill="#CBD4D9"/>
<path d="M3.06738 13.6157V30.0894C3.06738 30.5062 3.4048 30.837 3.81498 30.837H9.78918V19.365C9.78918 18.9482 10.1266 18.6174 10.5368 18.6174H27.9433C28.3601 18.6174 28.6909 18.9548 28.6909 19.365V30.837H34.6651C35.0819 30.837 35.4127 30.4996 35.4127 30.0894V13.6157H3.06738Z" fill="#CBD4D9"/>
</svg>
